NunitoSans-Heavy.ufo
<glyph name="seven" format="2">
  <advance width="600"/>
  <unicode hex="0037"/>
  <outline>
    <contour>
      <point x="36" y="0" type="line"/>
      <point x="271" y="0" type="line"/>
      <point x="570" y="544" type="line"/>
      <point x="570" y="705" type="line"/>
      <point x="31" y="705" type="line"/>
      <point x="31" y="531" type="line"/>
      <point x="367" y="531" type="line"/>
      <point x="367" y="589" type="line"/>
    </contour>
  </outline>
</glyph>
<glyph name="G" format="2">
  <advance width="754"/>
  <unicode hex="0047"/>
  <anchor x="426" y="0" name="bottom"/>
  <anchor x="419" y="705" name="top"/>
  <outline>
    <contour>
      <point x="429" y="-12" type="curve" smooth="yes"/>
      <point x="525" y="-12"/>
      <point x="621" y="7"/>
      <point x="701" y="44" type="curve"/>
      <point x="701" y="406" type="line"/>
      <point x="397" y="406" type="line"/>
      <point x="397" y="258" type="line"/>
      <point x="527" y="258" type="line"/>
      <point x="527" y="110" type="line"/>
      <point x="565" y="187" type="line"/>
      <point x="519" y="174"/>
      <point x="475" y="167"/>
      <point x="442" y="167" type="curve" smooth="yes"/>
      <point x="326" y="167"/>
      <point x="264" y="228"/>
      <point x="264" y="348" type="curve" smooth="yes"/>
      <point x="264" y="470"/>
      <point x="323" y="534"/>
      <point x="450" y="534" type="curve" smooth="yes"/>
      <point x="516" y="534"/>
      <point x="575" y="519"/>
      <point x="636" y="484" type="curve"/>
      <point x="699" y="649" type="line"/>
      <point x="645" y="689"/>
      <point x="546" y="717"/>
      <point x="448" y="717" type="curve" smooth="yes"/>
      <point x="192" y="717"/>
      <point x="41" y="572"/>
      <point x="41" y="348" type="curve" smooth="yes"/>
      <point x="41" y="136"/>
      <point x="181" y="-12"/>
    </contour>
  </outline>
</glyph>
<glyph name="M" format="2">
  <advance width="893"/>
  <unicode hex="004D"/>
  <anchor x="447" y="0" name="bottom"/>
  <anchor x="447" y="705" name="top"/>
  <outline>
    <contour>
      <point x="59" y="0" type="line"/>
      <point x="253" y="0" type="line"/>
      <point x="253" y="365" type="line"/>
      <point x="230" y="365" type="line"/>
      <point x="388" y="103" type="line"/>
      <point x="502" y="103" type="line"/>
      <point x="660" y="365" type="line"/>
      <point x="640" y="365" type="line"/>
      <point x="640" y="0" type="line"/>
      <point x="834" y="0" type="line"/>
      <point x="834" y="705" type="line"/>
      <point x="660" y="705" type="line"/>
      <point x="431" y="301" type="line"/>
      <point x="467" y="301" type="line"/>
      <point x="238" y="705" type="line"/>
      <point x="59" y="705" type="line"/>
    </contour>
  </outline>
</glyph>
<glyph name="N" format="2">
  <advance width="763"/>
  <unicode hex="004E"/>
  <anchor x="382" y="0" name="bottom"/>
  <anchor x="381" y="705" name="top"/>
  <outline>
    <contour>
      <point x="57" y="0" type="line"/>
      <point x="257" y="0" type="line"/>
      <point x="257" y="390" type="line"/>
      <point x="227" y="390" type="line"/>
      <point x="549" y="0" type="line"/>
      <point x="706" y="0" type="line"/>
      <point x="706" y="705" type="line"/>
      <point x="506" y="705" type="line"/>
      <point x="506" y="315" type="line"/>
      <point x="536" y="315" type="line"/>
      <point x="214" y="705" type="line"/>
      <point x="57" y="705" type="line"/>
    </contour>
  </outline>
</glyph>
<glyph name="c" format="2">
  <advance width="491"/>
  <unicode hex="0063"/>
  <anchor x="294" y="0" name="bottom"/>
  <anchor x="294" y="484" name="top"/>
  <outline>
    <contour>
      <point x="310" y="-12" type="curve" smooth="yes"/>
      <point x="376" y="-12"/>
      <point x="450" y="6"/>
      <point x="492" y="36" type="curve"/>
      <point x="438" y="178" type="line"/>
      <point x="411" y="158"/>
      <point x="367" y="143"/>
      <point x="333" y="143" type="curve" smooth="yes"/>
      <point x="272" y="143"/>
      <point x="237" y="181"/>
      <point x="237" y="247" type="curve" smooth="yes"/>
      <point x="237" y="313"/>
      <point x="272" y="351"/>
      <point x="333" y="351" type="curve" smooth="yes"/>
      <point x="368" y="351"/>
      <point x="411" y="336"/>
      <point x="438" y="316" type="curve"/>
      <point x="492" y="458" type="line"/>
      <point x="450" y="488"/>
      <point x="376" y="506"/>
      <point x="310" y="506" type="curve" smooth="yes"/>
      <point x="137" y="506"/>
      <point x="24" y="408"/>
      <point x="24" y="247" type="curve" smooth="yes"/>
      <point x="24" y="86"/>
      <point x="137" y="-12"/>
    </contour>
  </outline>
</glyph>
<glyph name="f" format="2">
  <advance width="423"/>
  <unicode hex="0066"/>
  <anchor x="195" y="0" name="bottom"/>
  <anchor x="195" y="705" name="top"/>
  <outline>
    <contour>
      <point x="91" y="0" type="line"/>
      <point x="299" y="0" type="line"/>
      <point x="299" y="342" type="line"/>
      <point x="418" y="342" type="line"/>
      <point x="418" y="494" type="line"/>
      <point x="275" y="494" type="line"/>
      <point x="299" y="475" type="line"/>
      <point x="299" y="505" type="line" smooth="yes"/>
      <point x="299" y="543"/>
      <point x="320" y="557"/>
      <point x="395" y="562" type="curve" smooth="yes"/>
      <point x="442" y="565" type="line"/>
      <point x="431" y="712" type="line"/>
      <point x="364" y="708" type="line" smooth="yes"/>
      <point x="176" y="698"/>
      <point x="91" y="622"/>
      <point x="91" y="464" type="curve" smooth="yes"/>
      <point x="91" y="439" type="line"/>
      <point x="152" y="494" type="line"/>
      <point x="0" y="494" type="line"/>
      <point x="0" y="342" type="line"/>
      <point x="91" y="342" type="line"/>
    </contour>
  </outline>
</glyph>
<glyph name="i" format="2">
  <advance width="296"/>
  <unicode hex="0069"/>
  <anchor x="149" y="0" name="bottom"/>
  <anchor x="200" y="0" name="ogonek"/>
  <outline>
    <contour>
      <point x="41" y="568" type="line"/>
      <point x="255" y="568" type="line"/>
      <point x="255" y="750" type="line"/>
      <point x="41" y="750" type="line"/>
    </contour>
    <contour>
      <point x="44" y="0" type="line"/>
      <point x="252" y="0" type="line"/>
      <point x="252" y="494" type="line"/>
      <point x="44" y="494" type="line"/>
    </contour>
  </outline>
</glyph>
<glyph name="m" format="2">
  <advance width="916"/>
  <unicode hex="006D"/>
  <anchor x="459" y="0" name="bottom"/>
  <anchor x="459" y="484" name="top"/>
  <outline>
    <contour>
      <point x="46" y="0" type="line"/>
      <point x="254" y="0" type="line"/>
      <point x="254" y="264" type="line" smooth="yes"/>
      <point x="254" y="320"/>
      <point x="274" y="348"/>
      <point x="313" y="348" type="curve" smooth="yes"/>
      <point x="343" y="348"/>
      <point x="355" y="330"/>
      <point x="355" y="282" type="curve" smooth="yes"/>
      <point x="355" y="0" type="line"/>
      <point x="563" y="0" type="line"/>
      <point x="563" y="264" type="line" smooth="yes"/>
      <point x="563" y="320"/>
      <point x="583" y="348"/>
      <point x="622" y="348" type="curve" smooth="yes"/>
      <point x="652" y="348"/>
      <point x="664" y="330"/>
      <point x="664" y="282" type="curve" smooth="yes"/>
      <point x="664" y="0" type="line"/>
      <point x="872" y="0" type="line"/>
      <point x="872" y="287" type="line" smooth="yes"/>
      <point x="872" y="437"/>
      <point x="818" y="506"/>
      <point x="702" y="506" type="curve" smooth="yes"/>
      <point x="629" y="506"/>
      <point x="564" y="468"/>
      <point x="531" y="405" type="curve"/>
      <point x="545" y="405" type="line"/>
      <point x="520" y="473"/>
      <point x="466" y="506"/>
      <point x="398" y="506" type="curve" smooth="yes"/>
      <point x="323" y="506"/>
      <point x="266" y="468"/>
      <point x="238" y="415" type="curve"/>
      <point x="249" y="415" type="line"/>
      <point x="249" y="494" type="line"/>
      <point x="46" y="494" type="line"/>
    </contour>
  </outline>
</glyph>
<glyph name="r" format="2">
  <advance width="457"/>
  <unicode hex="0072"/>
  <anchor x="150" y="0" name="bottom"/>
  <anchor x="249" y="484" name="top"/>
  <outline>
    <contour>
      <point x="44" y="0" type="line"/>
      <point x="256" y="0" type="line"/>
      <point x="256" y="235" type="line" smooth="yes"/>
      <point x="256" y="292"/>
      <point x="281" y="317"/>
      <point x="345" y="323" type="curve" smooth="yes"/>
      <point x="456" y="334" type="line"/>
      <point x="445" y="508" type="line"/>
      <point x="390" y="504" type="line" smooth="yes"/>
      <point x="302" y="498"/>
      <point x="246" y="451"/>
      <point x="237" y="371" type="curve"/>
      <point x="247" y="371" type="line"/>
      <point x="247" y="494" type="line"/>
      <point x="44" y="494" type="line"/>
    </contour>
  </outline>
</glyph>
<glyph name="v" format="2">
  <advance width="550"/>
  <unicode hex="0076"/>
  <anchor x="278" y="0" name="bottom"/>
  <anchor x="278" y="484" name="top"/>
  <outline>
    <contour>
      <point x="190" y="0" type="line"/>
      <point x="358" y="0" type="line"/>
      <point x="581" y="494" type="line"/>
      <point x="378" y="494" type="line"/>
      <point x="262" y="204" type="line"/>
      <point x="298" y="204" type="line"/>
      <point x="189" y="494" type="line"/>
      <point x="-28" y="494" type="line"/>
    </contour>
  </outline>
</glyph>
<glyph name="cent" format="2">
  <advance width="600"/>
  <unicode hex="00A2"/>
  <outline>
    <contour>
      <point x="236" y="-115" type="line"/>
      <point x="396" y="-115" type="line"/>
      <point x="396" y="30" type="line"/>
      <point x="351" y="-9" type="line"/>
      <point x="435" y="-5"/>
      <point x="503" y="21"/>
      <point x="548" y="55" type="curve"/>
      <point x="497" y="195" type="line"/>
      <point x="463" y="172"/>
      <point x="415" y="153"/>
      <point x="374" y="153" type="curve" smooth="yes"/>
      <point x="310" y="153"/>
      <point x="278" y="198"/>
      <point x="278" y="251" type="curve" smooth="yes"/>
      <point x="278" y="304"/>
      <point x="311" y="344"/>
      <point x="374" y="344" type="curve" smooth="yes"/>
      <point x="416" y="344"/>
      <point x="463" y="326"/>
      <point x="497" y="303" type="curve"/>
      <point x="548" y="443" type="line"/>
      <point x="505" y="478"/>
      <point x="432" y="499"/>
      <point x="352" y="500" type="curve"/>
      <point x="396" y="463" type="line"/>
      <point x="396" y="613" type="line"/>
      <point x="236" y="613" type="line"/>
      <point x="236" y="449" type="line"/>
      <point x="274" y="492" type="line"/>
      <point x="146" y="464"/>
      <point x="65" y="367"/>
      <point x="65" y="246" type="curve" smooth="yes"/>
      <point x="65" y="119"/>
      <point x="141" y="28"/>
      <point x="274" y="-3" type="curve"/>
      <point x="236" y="42" type="line"/>
    </contour>
  </outline>
</glyph>
<glyph name="ordmasculine" format="2">
  <advance width="380"/>
  <unicode hex="00BA"/>
  <outline>
    <contour>
      <point x="190" y="405" type="curve" smooth="yes"/>
      <point x="292" y="405"/>
      <point x="368" y="466"/>
      <point x="368" y="562" type="curve" smooth="yes"/>
      <point x="368" y="658"/>
      <point x="292" y="717"/>
      <point x="190" y="717" type="curve" smooth="yes"/>
      <point x="88" y="717"/>
      <point x="12" y="658"/>
      <point x="12" y="562" type="curve" smooth="yes"/>
      <point x="12" y="466"/>
      <point x="88" y="405"/>
    </contour>
    <contour>
      <point x="190" y="499" type="curve" smooth="yes"/>
      <point x="161" y="499"/>
      <point x="142" y="519"/>
      <point x="142" y="562" type="curve" smooth="yes"/>
      <point x="142" y="605"/>
      <point x="161" y="623"/>
      <point x="190" y="623" type="curve" smooth="yes"/>
      <point x="219" y="623"/>
      <point x="238" y="603"/>
      <point x="238" y="562" type="curve" smooth="yes"/>
      <point x="238" y="521"/>
      <point x="219" y="499"/>
    </contour>
  </outline>
</glyph>
<glyph name="questiondown" format="2">
  <advance width="489"/>
  <unicode hex="00BF"/>
  <outline>
    <contour>
      <point x="244" y="-192" type="curve" smooth="yes"/>
      <point x="329" y="-192"/>
      <point x="424" y="-166"/>
      <point x="488" y="-122" type="curve"/>
      <point x="423" y="33" type="line"/>
      <point x="369" y="-1"/>
      <point x="315" y="-17"/>
      <point x="261" y="-17" type="curve" smooth="yes"/>
      <point x="226" y="-17"/>
      <point x="209" y="-6"/>
      <point x="209" y="15" type="curve" smooth="yes"/>
      <point x="209" y="33"/>
      <point x="219" y="45"/>
      <point x="245" y="65" type="curve" smooth="yes"/>
      <point x="290" y="99"/>
      <point x="304" y="138"/>
      <point x="304" y="185" type="curve" smooth="yes"/>
      <point x="304" y="239" type="line"/>
      <point x="183" y="239" type="line"/>
      <point x="176" y="206" type="line" smooth="yes"/>
      <point x="172" y="185"/>
      <point x="156" y="160"/>
      <point x="94" y="124" type="curve" smooth="yes"/>
      <point x="24" y="84"/>
      <point x="-1" y="34"/>
      <point x="-1" y="-22" type="curve" smooth="yes"/>
      <point x="-1" y="-123"/>
      <point x="98" y="-192"/>
    </contour>
    <contour>
      <point x="138" y="287" type="line"/>
      <point x="349" y="287" type="line"/>
      <point x="349" y="494" type="line"/>
      <point x="138" y="494" type="line"/>
    </contour>
  </outline>
</glyph>
<glyph name="AE" format="2">
  <advance width="1014"/>
  <unicode hex="00C6"/>
  <guideline x="478" y="262" angle="102.61"/>
  <guideline x="672" y="261" angle="102.61"/>
  <guideline x="306" y="262" angle="59.2623"/>
  <anchor x="489" y="0" name="bottom"/>
  <anchor x="490" y="705" name="top"/>
  <outline>
    <contour>
      <point x="-74" y="0" type="line"/>
      <point x="150" y="0" type="line"/>
      <point x="261" y="186" type="line"/>
      <point x="184" y="131" type="line"/>
      <point x="562" y="131" type="line"/>
      <point x="498" y="194" type="line"/>
      <point x="541" y="0" type="line"/>
      <point x="961" y="0" type="line"/>
      <point x="961" y="164" type="line"/>
      <point x="636" y="164" type="line"/>
      <point x="706" y="109" type="line"/>
      <point x="655" y="335" type="line"/>
      <point x="613" y="276" type="line"/>
      <point x="938" y="276" type="line"/>
      <point x="938" y="440" type="line"/>
      <point x="576" y="440" type="line"/>
      <point x="645" y="381" type="line"/>
      <point x="600" y="584" type="line"/>
      <point x="546" y="541" type="line"/>
      <point x="961" y="541" type="line"/>
      <point x="961" y="705" type="line"/>
      <point x="382" y="705" type="line"/>
    </contour>
    <contour>
      <point x="433" y="476" type="line"/>
      <point x="435" y="476" type="line"/>
      <point x="489" y="235" type="line"/>
      <point x="531" y="295" type="line"/>
      <point x="285" y="295" type="line"/>
      <point x="294" y="243" type="line"/>
    </contour>
  </outline>
</glyph>
<glyph name="germandbls" format="2">
  <advance width="726"/>
  <unicode hex="00DF"/>
  <outline>
    <contour>
      <point x="498" y="-12" type="curve" smooth="yes"/>
      <point x="632" y="-12"/>
      <point x="717" y="59"/>
      <point x="717" y="173" type="curve" smooth="yes"/>
      <point x="717" y="247"/>
      <point x="678" y="300"/>
      <point x="586" y="326" type="curve" smooth="yes"/>
      <point x="518" y="345"/>
      <point x="504" y="355"/>
      <point x="504" y="370" type="curve" smooth="yes"/>
      <point x="504" y="384"/>
      <point x="512" y="397"/>
      <point x="549" y="436" type="curve" smooth="yes"/>
      <point x="589" y="478"/>
      <point x="601" y="516"/>
      <point x="601" y="558" type="curve" smooth="yes"/>
      <point x="601" y="655"/>
      <point x="513" y="717"/>
      <point x="360" y="717" type="curve" smooth="yes"/>
      <point x="155" y="717"/>
      <point x="44" y="613"/>
      <point x="44" y="418" type="curve" smooth="yes"/>
      <point x="44" y="0" type="line"/>
      <point x="252" y="0" type="line"/>
      <point x="252" y="455" type="line" smooth="yes"/>
      <point x="252" y="530"/>
      <point x="287" y="574"/>
      <point x="357" y="574" type="curve" smooth="yes"/>
      <point x="395" y="574"/>
      <point x="409" y="558"/>
      <point x="409" y="539" type="curve" smooth="yes"/>
      <point x="409" y="520"/>
      <point x="401" y="504"/>
      <point x="380" y="478" type="curve" smooth="yes"/>
      <point x="331" y="418"/>
      <point x="318" y="384"/>
      <point x="318" y="341" type="curve" smooth="yes"/>
      <point x="318" y="273"/>
      <point x="356" y="225"/>
      <point x="459" y="197" type="curve" smooth="yes"/>
      <point x="519" y="181"/>
      <point x="532" y="173"/>
      <point x="532" y="158" type="curve" smooth="yes"/>
      <point x="532" y="142"/>
      <point x="522" y="136"/>
      <point x="501" y="136" type="curve" smooth="yes"/>
      <point x="454" y="136"/>
      <point x="385" y="156"/>
      <point x="331" y="185" type="curve"/>
      <point x="279" y="49" type="line"/>
      <point x="336" y="10"/>
      <point x="418" y="-12"/>
    </contour>
  </outline>
</glyph>
<glyph name="thorn" format="2">
  <advance width="632"/>
  <unicode hex="00FE"/>
  <anchor x="320" y="0" name="bottom"/>
  <anchor x="320" y="484" name="top"/>
  <outline>
    <contour>
      <point x="44" y="-180" type="line"/>
      <point x="252" y="-180" type="line"/>
      <point x="252" y="73" type="line"/>
      <point x="240" y="73" type="line"/>
      <point x="260" y="24"/>
      <point x="324" y="-12"/>
      <point x="393" y="-12" type="curve" smooth="yes"/>
      <point x="519" y="-12"/>
      <point x="608" y="86"/>
      <point x="608" y="247" type="curve" smooth="yes"/>
      <point x="608" y="408"/>
      <point x="518" y="506"/>
      <point x="393" y="506" type="curve" smooth="yes"/>
      <point x="321" y="506"/>
      <point x="256" y="468"/>
      <point x="238" y="413" type="curve"/>
      <point x="252" y="413" type="line"/>
      <point x="252" y="705" type="line"/>
      <point x="44" y="705" type="line"/>
    </contour>
    <contour>
      <point x="324" y="140" type="curve" smooth="yes"/>
      <point x="281" y="140"/>
      <point x="249" y="168"/>
      <point x="249" y="247" type="curve" smooth="yes"/>
      <point x="249" y="326"/>
      <point x="281" y="354"/>
      <point x="324" y="354" type="curve" smooth="yes"/>
      <point x="367" y="354"/>
      <point x="399" y="326"/>
      <point x="399" y="247" type="curve" smooth="yes"/>
      <point x="399" y="168"/>
      <point x="367" y="140"/>
    </contour>
  </outline>
</glyph>
<glyph name="dcroat" format="2">
  <advance width="632"/>
  <unicode hex="0111"/>
  <outline>
    <contour>
      <point x="239" y="-12" type="curve" smooth="yes"/>
      <point x="311" y="-12"/>
      <point x="374" y="25"/>
      <point x="392" y="77" type="curve"/>
      <point x="385" y="77" type="line"/>
      <point x="385" y="0" type="line"/>
      <point x="588" y="0" type="line"/>
      <point x="588" y="525" type="line"/>
      <point x="668" y="525" type="line"/>
      <point x="668" y="665" type="line"/>
      <point x="588" y="665" type="line"/>
      <point x="588" y="705" type="line"/>
      <point x="380" y="705" type="line"/>
      <point x="380" y="665" type="line"/>
      <point x="200" y="665" type="line"/>
      <point x="200" y="525" type="line"/>
      <point x="380" y="525" type="line"/>
      <point x="380" y="404" type="line"/>
      <point x="390" y="404" type="line"/>
      <point x="370" y="451"/>
      <point x="308" y="486"/>
      <point x="239" y="486" type="curve" smooth="yes"/>
      <point x="113" y="486"/>
      <point x="24" y="392"/>
      <point x="24" y="237" type="curve" smooth="yes"/>
      <point x="24" y="82"/>
      <point x="114" y="-12"/>
    </contour>
    <contour>
      <point x="308" y="140" type="curve" smooth="yes"/>
      <point x="265" y="140"/>
      <point x="233" y="168"/>
      <point x="233" y="237" type="curve" smooth="yes"/>
      <point x="233" y="306"/>
      <point x="265" y="334"/>
      <point x="308" y="334" type="curve" smooth="yes"/>
      <point x="351" y="334"/>
      <point x="383" y="306"/>
      <point x="383" y="237" type="curve" smooth="yes"/>
      <point x="383" y="168"/>
      <point x="351" y="140"/>
    </contour>
  </outline>
</glyph>
<glyph name="yhook" format="2">
  <advance width="609"/>
  <unicode hex="01B4"/>
  <guideline x="390" y="0" angle="250.691"/>
  <guideline x="200" y="0" angle="250.691"/>
  <outline>
    <contour>
      <point x="326" y="365" type="curve" smooth="yes"/>
      <point x="261" y="204" type="line"/>
      <point x="297" y="204" type="line"/>
      <point x="188" y="494" type="line"/>
      <point x="-29" y="494" type="line"/>
      <point x="189" y="0" type="line"/>
      <point x="189" y="82" type="line"/>
      <point x="66" y="-180" type="line"/>
      <point x="276" y="-180" type="line"/>
      <point x="487" y="287" type="line" smooth="yes"/>
      <point x="506" y="328"/>
      <point x="536" y="347"/>
      <point x="567" y="347" type="curve" smooth="yes"/>
      <point x="581" y="347"/>
      <point x="592" y="347"/>
      <point x="607" y="342" type="curve"/>
      <point x="633" y="490" type="line"/>
      <point x="616" y="499"/>
      <point x="573" y="506"/>
      <point x="539" y="506" type="curve" smooth="yes"/>
      <point x="418" y="506"/>
      <point x="359" y="446"/>
    </contour>
  </outline>
</glyph>
<glyph name="commaturnedmod" format="2">
  <advance width="500"/>
  <unicode hex="02BB"/>
  <anchor x="250" y="484" name="_top"/>
  <anchor x="250" y="685" name="top"/>
  <outline>
    <contour>
      <point x="154" y="558" type="line"/>
      <point x="345" y="558" type="line"/>
      <point x="345" y="697" type="line"/>
      <point x="212" y="697" type="line"/>
      <point x="252" y="674" type="line"/>
      <point x="252" y="702"/>
      <point x="262" y="728"/>
      <point x="290" y="750" type="curve"/>
      <point x="222" y="795" type="line"/>
      <point x="170" y="752"/>
      <point x="154" y="703"/>
      <point x="154" y="638" type="curve" smooth="yes"/>
    </contour>
  </outline>
</glyph>
<glyph name="firsttonechinese" format="2">
  <advance width="500"/>
  <unicode hex="02C9"/>
  <anchor x="250" y="484" name="_top"/>
  <anchor x="250" y="685" name="top"/>
  <outline>
    <contour>
      <point x="75" y="599" type="line"/>
      <point x="425" y="599" type="line"/>
      <point x="425" y="709" type="line"/>
      <point x="75" y="709" type="line"/>
    </contour>
  </outline>
</glyph>
<glyph name="secondtonechinese" format="2">
  <advance width="500"/>
  <unicode hex="02CA"/>
  <guideline x="366" y="558" angle="0" name=" [locked]"/>
  <anchor x="250" y="484" name="_top"/>
  <anchor x="250" y="685" name="top"/>
  <outline>
    <contour>
      <point x="184" y="558" type="line"/>
      <point x="316" y="558" type="line"/>
      <point x="477" y="765" type="line"/>
      <point x="285" y="765" type="line"/>
    </contour>
  </outline>
</glyph>
<glyph name="fourthtofinechinese" format="2">
  <advance width="500"/>
  <unicode hex="02CB"/>
  <anchor x="250" y="484" name="_top"/>
  <anchor x="250" y="685" name="top"/>
  <outline>
    <contour>
      <point x="184" y="558" type="line"/>
      <point x="316" y="558" type="line"/>
      <point x="215" y="765" type="line"/>
      <point x="23" y="765" type="line"/>
    </contour>
  </outline>
</glyph>
<glyph name="dieresiscomb" format="2">
  <unicode hex="0308"/>
  <anchor x="0" y="484" name="_top"/>
  <anchor x="0" y="685" name="top"/>
  <outline>
    <contour>
      <point x="24" y="574" type="line"/>
      <point x="192" y="574" type="line"/>
      <point x="192" y="743" type="line"/>
      <point x="24" y="743" type="line"/>
    </contour>
    <contour>
      <point x="-192" y="574" type="line"/>
      <point x="-24" y="574" type="line"/>
      <point x="-24" y="743" type="line"/>
      <point x="-192" y="743" type="line"/>
    </contour>
  </outline>
</glyph>
<glyph name="slashlongcomb" format="2">
  <unicode hex="0338"/>
  <anchor x="0" y="247" name="_center"/>
  <outline>
    <contour>
      <point x="-130" y="-76" type="line"/>
      <point x="219" y="517" type="line"/>
      <point x="130" y="570" type="line"/>
      <point x="-219" y="-23" type="line"/>
    </contour>
  </outline>
</glyph>
<glyph name="mu" format="2">
  <advance width="613"/>
  <unicode hex="03BC"/>
  <outline>
    <contour>
      <point x="42" y="-180" type="line"/>
      <point x="250" y="-180" type="line"/>
      <point x="234" y="20" type="line"/>
      <point x="238" y="20" type="line"/>
      <point x="251" y="0"/>
      <point x="264" y="-12"/>
      <point x="291" y="-12" type="curve" smooth="yes"/>
      <point x="322" y="-12"/>
      <point x="356" y="22"/>
      <point x="362" y="83" type="curve"/>
      <point x="366" y="83" type="line"/>
      <point x="366" y="0" type="line"/>
      <point x="569" y="0" type="line"/>
      <point x="569" y="494" type="line"/>
      <point x="361" y="494" type="line"/>
      <point x="361" y="223" type="line" smooth="yes"/>
      <point x="361" y="177"/>
      <point x="334" y="146"/>
      <point x="297" y="146" type="curve" smooth="yes"/>
      <point x="265" y="146"/>
      <point x="250" y="165"/>
      <point x="250" y="201" type="curve" smooth="yes"/>
      <point x="250" y="494" type="line"/>
      <point x="42" y="494" type="line"/>
    </contour>
  </outline>
</glyph>
<glyph name="Nje-cy" format="2">
  <advance width="1162"/>
  <unicode hex="040A"/>
  <outline>
    <contour>
      <point x="57" y="0" type="line"/>
      <point x="272" y="0" type="line"/>
      <point x="272" y="269" type="line"/>
      <point x="522" y="269" type="line"/>
      <point x="522" y="0" type="line"/>
      <point x="889" y="0" type="line" smooth="yes"/>
      <point x="1044" y="0"/>
      <point x="1141" y="80"/>
      <point x="1141" y="221" type="curve" smooth="yes"/>
      <point x="1141" y="362"/>
      <point x="1044" y="442"/>
      <point x="889" y="442" type="curve" smooth="yes"/>
      <point x="737" y="442" type="line"/>
      <point x="737" y="705" type="line"/>
      <point x="522" y="705" type="line"/>
      <point x="522" y="445" type="line"/>
      <point x="272" y="445" type="line"/>
      <point x="272" y="705" type="line"/>
      <point x="57" y="705" type="line"/>
    </contour>
    <contour>
      <point x="737" y="160" type="line"/>
      <point x="737" y="282" type="line"/>
      <point x="859" y="282" type="line" smooth="yes"/>
      <point x="915" y="282"/>
      <point x="938" y="262"/>
      <point x="938" y="221" type="curve" smooth="yes"/>
      <point x="938" y="180"/>
      <point x="915" y="160"/>
      <point x="859" y="160" type="curve" smooth="yes"/>
    </contour>
  </outline>
</glyph>
<glyph name="Ii-cy" format="2">
  <advance width="763"/>
  <unicode hex="0418"/>
  <anchor x="506" y="0" name="bottomright"/>
  <anchor x="382" y="705" name="top"/>
  <outline>
    <contour>
      <point x="57" y="0" type="line"/>
      <point x="214" y="0" type="line"/>
      <point x="531" y="390" type="line"/>
      <point x="506" y="390" type="line"/>
      <point x="506" y="0" type="line"/>
      <point x="706" y="0" type="line"/>
      <point x="706" y="705" type="line"/>
      <point x="549" y="705" type="line"/>
      <point x="232" y="315" type="line"/>
      <point x="257" y="315" type="line"/>
      <point x="257" y="705" type="line"/>
      <point x="57" y="705" type="line"/>
    </contour>
  </outline>
</glyph>
<glyph name="Tse-cy" format="2">
  <advance width="851"/>
  <unicode hex="0426"/>
  <outline>
    <contour>
      <point x="644" y="-180" type="line"/>
      <point x="829" y="-180" type="line"/>
      <point x="829" y="174" type="line"/>
      <point x="729" y="174" type="line"/>
      <point x="729" y="705" type="line"/>
      <point x="514" y="705" type="line"/>
      <point x="514" y="174" type="line"/>
      <point x="272" y="174" type="line"/>
      <point x="272" y="705" type="line"/>
      <point x="57" y="705" type="line"/>
      <point x="57" y="0" type="line"/>
      <point x="644" y="0" type="line"/>
    </contour>
  </outline>
</glyph>
<glyph name="Yeru-cy" format="2">
  <advance width="988"/>
  <unicode hex="042B"/>
  <anchor x="494" y="705" name="top"/>
  <outline>
    <contour>
      <point x="57" y="0" type="line"/>
      <point x="394" y="0" type="line" smooth="yes"/>
      <point x="549" y="0"/>
      <point x="646" y="80"/>
      <point x="646" y="221" type="curve" smooth="yes"/>
      <point x="646" y="362"/>
      <point x="549" y="442"/>
      <point x="394" y="442" type="curve" smooth="yes"/>
      <point x="272" y="442" type="line"/>
      <point x="272" y="705" type="line"/>
      <point x="57" y="705" type="line"/>
    </contour>
    <contour>
      <point x="272" y="160" type="line"/>
      <point x="272" y="282" type="line"/>
      <point x="364" y="282" type="line" smooth="yes"/>
      <point x="420" y="282"/>
      <point x="443" y="262"/>
      <point x="443" y="221" type="curve" smooth="yes"/>
      <point x="443" y="180"/>
      <point x="420" y="160"/>
      <point x="364" y="160" type="curve" smooth="yes"/>
    </contour>
    <contour>
      <point x="716" y="0" type="line"/>
      <point x="931" y="0" type="line"/>
      <point x="931" y="705" type="line"/>
      <point x="716" y="705" type="line"/>
    </contour>
  </outline>
</glyph>
<glyph name="ve-cy" format="2">
  <advance width="609"/>
  <unicode hex="0432"/>
  <outline>
    <contour>
      <point x="54" y="0" type="line"/>
      <point x="376" y="0" type="line" smooth="yes"/>
      <point x="514" y="0"/>
      <point x="585" y="55"/>
      <point x="585" y="141" type="curve" smooth="yes"/>
      <point x="585" y="210"/>
      <point x="550" y="255"/>
      <point x="455" y="266" type="curve"/>
      <point x="455" y="249" type="line"/>
      <point x="522" y="262"/>
      <point x="565" y="305"/>
      <point x="565" y="365" type="curve" smooth="yes"/>
      <point x="565" y="442"/>
      <point x="516" y="494"/>
      <point x="368" y="494" type="curve" smooth="yes"/>
      <point x="54" y="494" type="line"/>
    </contour>
    <contour>
      <point x="244" y="117" type="line"/>
      <point x="244" y="194" type="line"/>
      <point x="350" y="194" type="line" smooth="yes"/>
      <point x="384" y="194"/>
      <point x="400" y="182"/>
      <point x="400" y="156" type="curve" smooth="yes"/>
      <point x="400" y="129"/>
      <point x="384" y="117"/>
      <point x="350" y="117" type="curve" smooth="yes"/>
    </contour>
    <contour>
      <point x="244" y="311" type="line"/>
      <point x="244" y="377" type="line"/>
      <point x="341" y="377" type="line" smooth="yes"/>
      <point x="365" y="377"/>
      <point x="380" y="367"/>
      <point x="380" y="345" type="curve" smooth="yes"/>
      <point x="380" y="323"/>
      <point x="365" y="311"/>
      <point x="341" y="311" type="curve" smooth="yes"/>
    </contour>
  </outline>
</glyph>
<glyph name="zhe-cy" format="2">
  <advance width="908"/>
  <unicode hex="0436"/>
  <anchor x="724" y="0" name="bottomright"/>
  <anchor x="454" y="484" name="top"/>
  <outline>
    <contour>
      <point x="-17" y="0" type="line"/>
      <point x="204" y="0" type="line"/>
      <point x="275" y="137" type="line" smooth="yes"/>
      <point x="288" y="162"/>
      <point x="303" y="171"/>
      <point x="324" y="171" type="curve" smooth="yes"/>
      <point x="350" y="171" type="line"/>
      <point x="350" y="0" type="line"/>
      <point x="558" y="0" type="line"/>
      <point x="558" y="171" type="line"/>
      <point x="584" y="171" type="line" smooth="yes"/>
      <point x="605" y="171"/>
      <point x="620" y="162"/>
      <point x="633" y="137" type="curve" smooth="yes"/>
      <point x="704" y="0" type="line"/>
      <point x="925" y="0" type="line"/>
      <point x="817" y="208" type="line" smooth="yes"/>
      <point x="796" y="248"/>
      <point x="752" y="292"/>
      <point x="701" y="299" type="curve"/>
      <point x="737" y="232" type="line"/>
      <point x="909" y="494" type="line"/>
      <point x="690" y="494" type="line"/>
      <point x="582" y="329" type="line"/>
      <point x="558" y="329" type="line"/>
      <point x="558" y="494" type="line"/>
      <point x="350" y="494" type="line"/>
      <point x="350" y="329" type="line"/>
      <point x="326" y="329" type="line"/>
      <point x="218" y="494" type="line"/>
      <point x="-1" y="494" type="line"/>
      <point x="171" y="232" type="line"/>
      <point x="207" y="299" type="line"/>
      <point x="156" y="292"/>
      <point x="112" y="248"/>
      <point x="91" y="208" type="curve" smooth="yes"/>
    </contour>
  </outline>
</glyph>
<glyph name="ii-cy" format="2">
  <advance width="642"/>
  <unicode hex="0438"/>
  <anchor x="401" y="0" name="bottomright"/>
  <anchor x="321" y="484" name="top"/>
  <outline>
    <contour>
      <point x="54" y="0" type="line"/>
      <point x="224" y="0" type="line"/>
      <point x="430" y="271" type="line"/>
      <point x="401" y="271" type="line"/>
      <point x="401" y="0" type="line"/>
      <point x="588" y="0" type="line"/>
      <point x="588" y="494" type="line"/>
      <point x="418" y="494" type="line"/>
      <point x="212" y="223" type="line"/>
      <point x="241" y="223" type="line"/>
      <point x="241" y="494" type="line"/>
      <point x="54" y="494" type="line"/>
    </contour>
  </outline>
</glyph>
<glyph name="el-cy" format="2">
  <advance width="639"/>
  <unicode hex="043B"/>
  <anchor x="391" y="0" name="bottomright"/>
  <outline>
    <contour>
      <point x="67" y="-18" type="line"/>
      <point x="227" y="-8"/>
      <point x="303" y="108"/>
      <point x="303" y="285" type="curve" smooth="yes"/>
      <point x="303" y="336" type="line"/>
      <point x="377" y="336" type="line"/>
      <point x="377" y="0" type="line"/>
      <point x="585" y="0" type="line"/>
      <point x="585" y="494" type="line"/>
      <point x="115" y="494" type="line"/>
      <point x="115" y="292" type="line" smooth="yes"/>
      <point x="115" y="203"/>
      <point x="83" y="154"/>
      <point x="11" y="146" type="curve"/>
    </contour>
  </outline>
</glyph>
<glyph name="shcha-cy" format="2">
  <advance width="933"/>
  <unicode hex="0449"/>
  <outline>
    <contour>
      <point x="749" y="-130" type="line"/>
      <point x="924" y="-130" type="line"/>
      <point x="924" y="158" type="line"/>
      <point x="839" y="158" type="line"/>
      <point x="839" y="494" type="line"/>
      <point x="646" y="494" type="line"/>
      <point x="646" y="158" type="line"/>
      <point x="543" y="158" type="line"/>
      <point x="543" y="494" type="line"/>
      <point x="350" y="494" type="line"/>
      <point x="350" y="158" type="line"/>
      <point x="247" y="158" type="line"/>
      <point x="247" y="494" type="line"/>
      <point x="54" y="494" type="line"/>
      <point x="54" y="0" type="line"/>
      <point x="749" y="0" type="line"/>
    </contour>
  </outline>
</glyph>
<glyph name="Yusbig-cy" format="2">
  <advance width="1110"/>
  <unicode hex="046A"/>
  <guideline x="562" y="256" angle="90"/>
  <outline>
    <contour>
      <point x="-9" y="0" type="line"/>
      <point x="223" y="0" type="line"/>
      <point x="312" y="195" type="line" smooth="yes"/>
      <point x="330" y="234"/>
      <point x="352" y="259"/>
      <point x="417" y="259" type="curve" smooth="yes"/>
      <point x="448" y="259" type="line"/>
      <point x="448" y="0" type="line"/>
      <point x="663" y="0" type="line"/>
      <point x="663" y="259" type="line"/>
      <point x="693" y="259" type="line" smooth="yes"/>
      <point x="758" y="259"/>
      <point x="780" y="234"/>
      <point x="798" y="195" type="curve" smooth="yes"/>
      <point x="887" y="0" type="line"/>
      <point x="1119" y="0" type="line"/>
      <point x="987" y="270" type="line" smooth="yes"/>
      <point x="936" y="375"/>
      <point x="838" y="430"/>
      <point x="721" y="430" type="curve" smooth="yes"/>
      <point x="709" y="430" type="line"/>
      <point x="709" y="384" type="line"/>
      <point x="981" y="705" type="line"/>
      <point x="130" y="705" type="line"/>
      <point x="401" y="384" type="line"/>
      <point x="401" y="430" type="line"/>
      <point x="389" y="430" type="line" smooth="yes"/>
      <point x="272" y="430"/>
      <point x="174" y="375"/>
      <point x="123" y="270" type="curve" smooth="yes"/>
    </contour>
    <contour>
      <point x="554" y="425" type="line"/>
      <point x="401" y="606" type="line"/>
      <point x="401" y="565" type="line"/>
      <point x="709" y="565" type="line"/>
      <point x="709" y="606" type="line"/>
      <point x="556" y="425" type="line"/>
    </contour>
  </outline>
</glyph>
<glyph name="ghemiddlehook-cy" format="2">
  <advance width="624"/>
  <unicode hex="0495"/>
  <outline>
    <contour>
      <point x="373" y="-188" type="line"/>
      <point x="549" y="-136"/>
      <point x="596" y="-46"/>
      <point x="596" y="70" type="curve" smooth="yes"/>
      <point x="596" y="96" type="line" smooth="yes"/>
      <point x="596" y="245"/>
      <point x="538" y="315"/>
      <point x="420" y="315" type="curve" smooth="yes"/>
      <point x="338" y="315"/>
      <point x="276" y="278"/>
      <point x="240" y="215" type="curve"/>
      <point x="262" y="215" type="line"/>
      <point x="262" y="354" type="line"/>
      <point x="479" y="354" type="line"/>
      <point x="479" y="494" type="line"/>
      <point x="54" y="494" type="line"/>
      <point x="54" y="0" type="line"/>
      <point x="262" y="0" type="line"/>
      <point x="262" y="81" type="line" smooth="yes"/>
      <point x="262" y="127"/>
      <point x="292" y="157"/>
      <point x="337" y="157" type="curve" smooth="yes"/>
      <point x="382" y="157"/>
      <point x="388" y="139"/>
      <point x="388" y="88" type="curve" smooth="yes"/>
      <point x="388" y="70" type="line" smooth="yes"/>
      <point x="388" y="2"/>
      <point x="372" y="-18"/>
      <point x="305" y="-41" type="curve"/>
    </contour>
  </outline>
</glyph>
<glyph name="kaverticalstroke-cy" format="2">
  <advance width="753"/>
  <unicode hex="049D"/>
  <outline>
    <contour>
      <point x="54" y="0" type="line"/>
      <point x="262" y="0" type="line"/>
      <point x="262" y="171" type="line"/>
      <point x="303" y="171" type="line"/>
      <point x="303" y="56" type="line"/>
      <point x="417" y="56" type="line"/>
      <point x="417" y="188" type="line"/>
      <point x="411" y="171" type="line"/>
      <point x="429" y="171" type="line" smooth="yes"/>
      <point x="450" y="171"/>
      <point x="465" y="162"/>
      <point x="478" y="137" type="curve" smooth="yes"/>
      <point x="549" y="0" type="line"/>
      <point x="770" y="0" type="line"/>
      <point x="662" y="208" type="line" smooth="yes"/>
      <point x="641" y="248"/>
      <point x="597" y="292"/>
      <point x="546" y="299" type="curve"/>
      <point x="582" y="232" type="line"/>
      <point x="754" y="494" type="line"/>
      <point x="535" y="494" type="line"/>
      <point x="427" y="329" type="line"/>
      <point x="417" y="329" type="line"/>
      <point x="417" y="434" type="line"/>
      <point x="303" y="434" type="line"/>
      <point x="303" y="329" type="line"/>
      <point x="262" y="329" type="line"/>
      <point x="262" y="494" type="line"/>
      <point x="54" y="494" type="line"/>
    </contour>
  </outline>
</glyph>
<glyph name="kabashkir-cy" format="2">
  <advance width="708"/>
  <unicode hex="04A1"/>
  <outline>
    <contour>
      <point x="140" y="0" type="line"/>
      <point x="348" y="0" type="line"/>
      <point x="348" y="171" type="line"/>
      <point x="384" y="171" type="line" smooth="yes"/>
      <point x="405" y="171"/>
      <point x="420" y="162"/>
      <point x="433" y="137" type="curve" smooth="yes"/>
      <point x="504" y="0" type="line"/>
      <point x="725" y="0" type="line"/>
      <point x="617" y="208" type="line" smooth="yes"/>
      <point x="596" y="248"/>
      <point x="552" y="292"/>
      <point x="501" y="299" type="curve"/>
      <point x="537" y="232" type="line"/>
      <point x="709" y="494" type="line"/>
      <point x="490" y="494" type="line"/>
      <point x="382" y="329" type="line"/>
      <point x="348" y="329" type="line"/>
      <point x="348" y="494" type="line"/>
      <point x="10" y="494" type="line"/>
      <point x="10" y="332" type="line"/>
      <point x="140" y="332" type="line"/>
    </contour>
  </outline>
</glyph>
<glyph name="endescender-cy" format="2">
  <advance width="687"/>
  <unicode hex="04A3"/>
  <outline>
    <contour>
      <point x="503" y="-130" type="line"/>
      <point x="678" y="-130" type="line"/>
      <point x="678" y="152" type="line"/>
      <point x="593" y="152" type="line"/>
      <point x="593" y="494" type="line"/>
      <point x="385" y="494" type="line"/>
      <point x="385" y="329" type="line"/>
      <point x="262" y="329" type="line"/>
      <point x="262" y="494" type="line"/>
      <point x="54" y="494" type="line"/>
      <point x="54" y="0" type="line"/>
      <point x="262" y="0" type="line"/>
      <point x="262" y="171" type="line"/>
      <point x="385" y="171" type="line"/>
      <point x="385" y="0" type="line"/>
      <point x="503" y="0" type="line"/>
    </contour>
  </outline>
</glyph>
<glyph name="haabkhasian-cy" format="2">
  <advance width="803"/>
  <unicode hex="04A9"/>
  <outline>
    <contour>
      <point x="362" y="-12" type="curve" smooth="yes"/>
      <point x="544" y="-12"/>
      <point x="705" y="95"/>
      <point x="705" y="221" type="curve" smooth="yes"/>
      <point x="705" y="319"/>
      <point x="625" y="385"/>
      <point x="508" y="385" type="curve" smooth="yes"/>
      <point x="391" y="385"/>
      <point x="313" y="320"/>
      <point x="313" y="221" type="curve" smooth="yes"/>
      <point x="313" y="98"/>
      <point x="473" y="-12"/>
      <point x="645" y="-12" type="curve" smooth="yes"/>
      <point x="705" y="-12"/>
      <point x="764" y="-2"/>
      <point x="810" y="16" type="curve"/>
      <point x="784" y="154" type="line"/>
      <point x="744" y="132"/>
      <point x="684" y="119"/>
      <point x="628" y="119" type="curve" smooth="yes"/>
      <point x="501" y="119"/>
      <point x="469" y="136"/>
      <point x="469" y="210" type="curve" smooth="yes"/>
      <point x="469" y="243"/>
      <point x="485" y="261"/>
      <point x="508" y="261" type="curve" smooth="yes"/>
      <point x="533" y="261"/>
      <point x="549" y="243"/>
      <point x="549" y="210" type="curve" smooth="yes"/>
      <point x="549" y="141"/>
      <point x="507" y="119"/>
      <point x="389" y="119" type="curve" smooth="yes"/>
      <point x="286" y="119"/>
      <point x="233" y="166"/>
      <point x="233" y="249" type="curve" smooth="yes"/>
      <point x="233" y="322"/>
      <point x="276" y="365"/>
      <point x="340" y="365" type="curve" smooth="yes"/>
      <point x="349" y="365"/>
      <point x="359" y="365"/>
      <point x="367" y="364" type="curve"/>
      <point x="393" y="498" type="line"/>
      <point x="369" y="504"/>
      <point x="345" y="506"/>
      <point x="320" y="506" type="curve" smooth="yes"/>
      <point x="151" y="506"/>
      <point x="34" y="408"/>
      <point x="34" y="250" type="curve" smooth="yes"/>
      <point x="34" y="86"/>
      <point x="148" y="-12"/>
    </contour>
  </outline>
</glyph>
<glyph name="ustraight-cy" format="2">
  <advance width="570"/>
  <unicode hex="04AF"/>
  <anchor x="289" y="32" name="center"/>
  <outline>
    <contour>
      <point x="182" y="-180" type="line"/>
      <point x="390" y="-180" type="line"/>
      <point x="390" y="49" type="line"/>
      <point x="591" y="494" type="line"/>
      <point x="388" y="494" type="line"/>
      <point x="272" y="204" type="line"/>
      <point x="308" y="204" type="line"/>
      <point x="199" y="494" type="line"/>
      <point x="-18" y="494" type="line"/>
      <point x="182" y="40" type="line"/>
    </contour>
  </outline>
</glyph>
<glyph name="Shha-cy" format="2">
  <advance width="735"/>
  <unicode hex="04BA"/>
  <anchor x="491" y="0" name="bottomright"/>
  <outline>
    <contour>
      <point x="57" y="0" type="line"/>
      <point x="272" y="0" type="line"/>
      <point x="272" y="296" type="line"/>
      <point x="298" y="305"/>
      <point x="333" y="310"/>
      <point x="360" y="310" type="curve" smooth="yes"/>
      <point x="438" y="310"/>
      <point x="477" y="273"/>
      <point x="477" y="174" type="curve" smooth="yes"/>
      <point x="477" y="0" type="line"/>
      <point x="692" y="0" type="line"/>
      <point x="692" y="180" type="line" smooth="yes"/>
      <point x="692" y="390"/>
      <point x="581" y="489"/>
      <point x="388" y="489" type="curve" smooth="yes"/>
      <point x="345" y="489"/>
      <point x="298" y="481"/>
      <point x="272" y="473" type="curve"/>
      <point x="272" y="705" type="line"/>
      <point x="57" y="705" type="line"/>
    </contour>
  </outline>
</glyph>
<glyph name="kahook-cy" format="2">
  <advance width="627"/>
  <unicode hex="04C4"/>
  <outline>
    <contour>
      <point x="373" y="-188" type="line"/>
      <point x="549" y="-136"/>
      <point x="596" y="-46"/>
      <point x="596" y="70" type="curve" smooth="yes"/>
      <point x="596" y="96" type="line" smooth="yes"/>
      <point x="596" y="232"/>
      <point x="507" y="320"/>
      <point x="353" y="320" type="curve"/>
      <point x="451" y="232" type="line"/>
      <point x="623" y="494" type="line"/>
      <point x="404" y="494" type="line"/>
      <point x="296" y="329" type="line"/>
      <point x="262" y="329" type="line"/>
      <point x="262" y="494" type="line"/>
      <point x="54" y="494" type="line"/>
      <point x="54" y="0" type="line"/>
      <point x="262" y="0" type="line"/>
      <point x="262" y="171" type="line"/>
      <point x="301" y="171" type="line" smooth="yes"/>
      <point x="353" y="171"/>
      <point x="388" y="146"/>
      <point x="388" y="88" type="curve" smooth="yes"/>
      <point x="388" y="70" type="line" smooth="yes"/>
      <point x="388" y="2"/>
      <point x="372" y="-18"/>
      <point x="305" y="-41" type="curve"/>
    </contour>
  </outline>
</glyph>
<glyph name="dzeabkhasian-cy" format="2">
  <advance width="557"/>
  <unicode hex="04E1"/>
  <outline>
    <contour>
      <point x="241" y="-192" type="curve" smooth="yes"/>
      <point x="417" y="-192"/>
      <point x="533" y="-97"/>
      <point x="533" y="46" type="curve" smooth="yes"/>
      <point x="533" y="162"/>
      <point x="446" y="233"/>
      <point x="304" y="233" type="curve" smooth="yes"/>
      <point x="249" y="233" type="line"/>
      <point x="321" y="197" type="line"/>
      <point x="501" y="356" type="line"/>
      <point x="501" y="494" type="line"/>
      <point x="25" y="494" type="line"/>
      <point x="25" y="342" type="line"/>
      <point x="324" y="342" type="line"/>
      <point x="324" y="383" type="line"/>
      <point x="120" y="196" type="line"/>
      <point x="120" y="101" type="line"/>
      <point x="206" y="101" type="line" smooth="yes"/>
      <point x="290" y="101"/>
      <point x="327" y="79"/>
      <point x="327" y="30" type="curve" smooth="yes"/>
      <point x="327" y="-15"/>
      <point x="290" y="-37"/>
      <point x="212" y="-37" type="curve" smooth="yes"/>
      <point x="155" y="-37"/>
      <point x="93" y="-20"/>
      <point x="49" y="8" type="curve"/>
      <point x="-5" y="-134" type="line"/>
      <point x="58" y="-173"/>
      <point x="139" y="-192"/>
    </contour>
  </outline>
</glyph>
<glyph name="hahook-cy" format="2">
  <advance width="607"/>
  <unicode hex="04FD"/>
  <outline>
    <contour>
      <point x="343" y="-190" type="line"/>
      <point x="532" y="-174"/>
      <point x="596" y="-109"/>
      <point x="596" y="-17" type="curve" smooth="yes"/>
      <point x="596" y="31"/>
      <point x="580" y="65"/>
      <point x="529" y="126" type="curve" smooth="yes"/>
      <point x="383" y="301" type="line"/>
      <point x="383" y="208" type="line"/>
      <point x="619" y="494" type="line"/>
      <point x="378" y="494" type="line"/>
      <point x="268" y="350" type="line"/>
      <point x="340" y="350" type="line"/>
      <point x="230" y="494" type="line"/>
      <point x="-11" y="494" type="line"/>
      <point x="224" y="209" type="line"/>
      <point x="224" y="299" type="line"/>
      <point x="-25" y="0" type="line"/>
      <point x="216" y="0" type="line"/>
      <point x="340" y="157" type="line"/>
      <point x="268" y="157" type="line"/>
      <point x="356" y="46" type="line" smooth="yes"/>
      <point x="377" y="20"/>
      <point x="386" y="4"/>
      <point x="386" y="-9" type="curve" smooth="yes"/>
      <point x="386" y="-34"/>
      <point x="369" y="-46"/>
      <point x="313" y="-49" type="curve"/>
    </contour>
  </outline>
</glyph>
<glyph name="reversedze-cy" format="2">
  <advance width="562"/>
  <unicode hex="0511"/>
  <outline>
    <contour>
      <point x="290" y="-12" type="curve" smooth="yes"/>
      <point x="386" y="-12"/>
      <point x="474" y="4"/>
      <point x="538" y="40" type="curve"/>
      <point x="492" y="166" type="line"/>
      <point x="445" y="143"/>
      <point x="362" y="127"/>
      <point x="295" y="127" type="curve" smooth="yes"/>
      <point x="238" y="127"/>
      <point x="209" y="133"/>
      <point x="209" y="156" type="curve" smooth="yes"/>
      <point x="209" y="171"/>
      <point x="219" y="180"/>
      <point x="252" y="180" type="curve" smooth="yes"/>
      <point x="410" y="180" type="line"/>
      <point x="410" y="317" type="line"/>
      <point x="267" y="317" type="line" smooth="yes"/>
      <point x="239" y="317"/>
      <point x="229" y="324"/>
      <point x="229" y="337" type="curve" smooth="yes"/>
      <point x="229" y="355"/>
      <point x="246" y="364"/>
      <point x="319" y="364" type="curve" smooth="yes"/>
      <point x="386" y="364"/>
      <point x="442" y="348"/>
      <point x="486" y="331" type="curve"/>
      <point x="532" y="456" type="line"/>
      <point x="476" y="485"/>
      <point x="385" y="506"/>
      <point x="297" y="506" type="curve" smooth="yes"/>
      <point x="140" y="506"/>
      <point x="44" y="454"/>
      <point x="44" y="365" type="curve" smooth="yes"/>
      <point x="44" y="306"/>
      <point x="86" y="262"/>
      <point x="154" y="249" type="curve"/>
      <point x="154" y="266" type="line"/>
      <point x="66" y="256"/>
      <point x="24" y="216"/>
      <point x="24" y="141" type="curve" smooth="yes"/>
      <point x="24" y="46"/>
      <point x="125" y="-12"/>
    </contour>
  </outline>
</glyph>
<glyph name="quoteright" format="2">
  <advance width="285"/>
  <unicode hex="2019"/>
  <outline>
    <contour>
      <point x="134" y="330" type="line"/>
      <point x="218" y="414"/>
      <point x="248" y="484"/>
      <point x="248" y="577" type="curve" smooth="yes"/>
      <point x="248" y="705" type="line"/>
      <point x="37" y="705" type="line"/>
      <point x="37" y="498" type="line"/>
      <point x="183" y="498" type="line"/>
      <point x="139" y="549" type="line"/>
      <point x="139" y="491"/>
      <point x="114" y="446"/>
      <point x="58" y="391" type="curve"/>
    </contour>
  </outline>
</glyph>
<glyph name="daggerdbl" format="2">
  <advance width="383"/>
  <unicode hex="2021"/>
  <outline>
    <contour>
      <point x="116" y="155" type="line"/>
      <point x="267" y="155" type="line"/>
      <point x="267" y="265" type="line"/>
      <point x="363" y="265" type="line"/>
      <point x="363" y="394" type="line"/>
      <point x="267" y="394" type="line"/>
      <point x="267" y="467" type="line"/>
      <point x="363" y="467" type="line"/>
      <point x="363" y="598" type="line"/>
      <point x="267" y="598" type="line"/>
      <point x="267" y="705" type="line"/>
      <point x="116" y="705" type="line"/>
      <point x="116" y="598" type="line"/>
      <point x="20" y="598" type="line"/>
      <point x="20" y="467" type="line"/>
      <point x="116" y="467" type="line"/>
      <point x="116" y="394" type="line"/>
      <point x="20" y="394" type="line"/>
      <point x="20" y="265" type="line"/>
      <point x="116" y="265" type="line"/>
    </contour>
  </outline>
</glyph>
<glyph name="hryvnia" format="2">
  <advance width="600"/>
  <unicode hex="20B4"/>
  <outline>
    <contour>
      <point x="312" y="-12" type="curve" smooth="yes"/>
      <point x="418" y="-12"/>
      <point x="497" y="5"/>
      <point x="571" y="56" type="curve"/>
      <point x="505" y="202" type="line"/>
      <point x="471" y="178"/>
      <point x="415" y="156"/>
      <point x="366" y="156" type="curve" smooth="yes"/>
      <point x="320" y="156"/>
      <point x="299" y="177"/>
      <point x="299" y="199" type="curve" smooth="yes"/>
      <point x="299" y="217"/>
      <point x="303" y="231"/>
      <point x="312" y="247" type="curve"/>
      <point x="260" y="216" type="line"/>
      <point x="572" y="216" type="line"/>
      <point x="572" y="328" type="line"/>
      <point x="361" y="328" type="line"/>
      <point x="373" y="314" type="line"/>
      <point x="433" y="385" type="line"/>
      <point x="399" y="378" type="line"/>
      <point x="572" y="378" type="line"/>
      <point x="572" y="490" type="line"/>
      <point x="494" y="490" type="line"/>
      <point x="509" y="469" type="line"/>
      <point x="533" y="503"/>
      <point x="540" y="535"/>
      <point x="540" y="573" type="curve" smooth="yes"/>
      <point x="540" y="668"/>
      <point x="471" y="717"/>
      <point x="337" y="717" type="curve" smooth="yes"/>
      <point x="250" y="717"/>
      <point x="153" y="692"/>
      <point x="84" y="652" type="curve"/>
      <point x="140" y="508" type="line"/>
      <point x="184" y="537"/>
      <point x="238" y="550"/>
      <point x="263" y="550" type="curve" smooth="yes"/>
      <point x="300" y="550"/>
      <point x="317" y="541"/>
      <point x="317" y="518" type="curve" smooth="yes"/>
      <point x="317" y="503"/>
      <point x="311" y="485"/>
      <point x="298" y="467" type="curve"/>
      <point x="350" y="490" type="line"/>
      <point x="30" y="490" type="line"/>
      <point x="30" y="378" type="line"/>
      <point x="239" y="378" type="line"/>
      <point x="219" y="384" type="line"/>
      <point x="159" y="316" type="line"/>
      <point x="211" y="328" type="line"/>
      <point x="30" y="328" type="line"/>
      <point x="30" y="216" type="line"/>
      <point x="119" y="216" type="line"/>
      <point x="106" y="235" type="line"/>
      <point x="84" y="197"/>
      <point x="81" y="165"/>
      <point x="81" y="143" type="curve" smooth="yes"/>
      <point x="81" y="47"/>
      <point x="168" y="-12"/>
    </contour>
  </outline>
</glyph>
<glyph name="numero" format="2">
  <advance width="1150"/>
  <unicode hex="2116"/>
  <outline>
    <contour>
      <point x="57" y="0" type="line"/>
      <point x="257" y="0" type="line"/>
      <point x="257" y="390" type="line"/>
      <point x="227" y="390" type="line"/>
      <point x="549" y="0" type="line"/>
      <point x="706" y="0" type="line"/>
      <point x="706" y="705" type="line"/>
      <point x="506" y="705" type="line"/>
      <point x="506" y="315" type="line"/>
      <point x="536" y="315" type="line"/>
      <point x="214" y="705" type="line"/>
      <point x="57" y="705" type="line"/>
    </contour>
    <contour>
      <point x="791" y="229" type="line"/>
      <point x="1116" y="229" type="line"/>
      <point x="1116" y="349" type="line"/>
      <point x="791" y="349" type="line"/>
    </contour>
    <contour>
      <point x="953" y="405" type="curve" smooth="yes"/>
      <point x="1055" y="405"/>
      <point x="1131" y="466"/>
      <point x="1131" y="562" type="curve" smooth="yes"/>
      <point x="1131" y="658"/>
      <point x="1055" y="717"/>
      <point x="953" y="717" type="curve" smooth="yes"/>
      <point x="851" y="717"/>
      <point x="775" y="658"/>
      <point x="775" y="562" type="curve" smooth="yes"/>
      <point x="775" y="466"/>
      <point x="851" y="405"/>
    </contour>
    <contour>
      <point x="953" y="499" type="curve" smooth="yes"/>
      <point x="924" y="499"/>
      <point x="905" y="518"/>
      <point x="905" y="562" type="curve" smooth="yes"/>
      <point x="905" y="605"/>
      <point x="924" y="623"/>
      <point x="953" y="623" type="curve" smooth="yes"/>
      <point x="982" y="623"/>
      <point x="1001" y="603"/>
      <point x="1001" y="562" type="curve" smooth="yes"/>
      <point x="1001" y="520"/>
      <point x="982" y="499"/>
    </contour>
  </outline>
</glyph>
<glyph name="partialdiff" format="2">
  <advance width="600"/>
  <unicode hex="2202"/>
  <outline>
    <contour>
      <point x="281" y="-12" type="curve" smooth="yes"/>
      <point x="466" y="-12"/>
      <point x="575" y="117"/>
      <point x="575" y="328" type="curve" smooth="yes"/>
      <point x="575" y="564"/>
      <point x="434" y="717"/>
      <point x="211" y="717" type="curve" smooth="yes"/>
      <point x="164" y="717"/>
      <point x="136" y="715"/>
      <point x="108" y="709" type="curve"/>
      <point x="108" y="555" type="line"/>
      <point x="136" y="555" type="line" smooth="yes"/>
      <point x="283" y="555"/>
      <point x="369" y="503"/>
      <point x="369" y="377" type="curve"/>
      <point x="386" y="377" type="line"/>
      <point x="364" y="436"/>
      <point x="320" y="460"/>
      <point x="246" y="460" type="curve" smooth="yes"/>
      <point x="115" y="460"/>
      <point x="22" y="363"/>
      <point x="22" y="228" type="curve" smooth="yes"/>
      <point x="22" y="87"/>
      <point x="127" y="-12"/>
    </contour>
    <contour>
      <point x="293" y="139" type="curve" smooth="yes"/>
      <point x="257" y="139"/>
      <point x="231" y="175"/>
      <point x="231" y="230" type="curve" smooth="yes"/>
      <point x="231" y="283"/>
      <point x="257" y="316"/>
      <point x="293" y="316" type="curve" smooth="yes"/>
      <point x="330" y="316"/>
      <point x="357" y="284"/>
      <point x="357" y="230" type="curve" smooth="yes"/>
      <point x="357" y="174"/>
      <point x="330" y="139"/>
    </contour>
  </outline>
</glyph>
<glyph name="rightanglebracket-math" format="2">
  <advance width="600"/>
  <unicode hex="27E9"/>
  <outline>
    <contour>
      <point x="273" y="-32" type="line"/>
      <point x="397" y="333" type="line"/>
      <point x="397" y="346" type="line"/>
      <point x="274" y="727" type="line"/>
      <point x="203" y="700" type="line"/>
      <point x="318" y="349" type="line"/>
      <point x="202" y="-6" type="line"/>
    </contour>
  </outline>
</glyph>
<glyph name="fi" format="2">
  <advance width="709"/>
  <unicode hex="FB01"/>
  <anchor x="154.782" y="0" name="bottom"/>
  <anchor x="378" y="0" name="caret_1"/>
  <anchor x="574.19" y="0" name="ogonek"/>
  <anchor x="265.625" y="705" name="top"/>
  <outline>
    <contour>
      <point x="91" y="0" type="line"/>
      <point x="299" y="0" type="line"/>
      <point x="299" y="342" type="line"/>
      <point x="457" y="342" type="line"/>
      <point x="457" y="0" type="line"/>
      <point x="665" y="0" type="line"/>
      <point x="665" y="494" type="line"/>
      <point x="299" y="494" type="line"/>
      <point x="299" y="480" type="line"/>
      <point x="299" y="505" type="line" smooth="yes"/>
      <point x="299" y="543"/>
      <point x="320" y="557"/>
      <point x="395" y="562" type="curve" smooth="yes"/>
      <point x="427" y="564" type="line"/>
      <point x="419" y="711" type="line"/>
      <point x="364" y="708" type="line" smooth="yes"/>
      <point x="176" y="698"/>
      <point x="91" y="622"/>
      <point x="91" y="464" type="curve" smooth="yes"/>
      <point x="91" y="439" type="line"/>
      <point x="152" y="494" type="line"/>
      <point x="0" y="494" type="line"/>
      <point x="0" y="342" type="line"/>
      <point x="91" y="342" type="line"/>
    </contour>
    <contour>
      <point x="454" y="568" type="line"/>
      <point x="668" y="568" type="line"/>
      <point x="668" y="750" type="line"/>
      <point x="454" y="750" type="line"/>
    </contour>
  </outline>
</glyph>
<glyph name="brevecomb-cy" format="2">
  <anchor x="0" y="484" name="_top"/>
  <outline>
    <contour>
      <point x="-2" y="554" type="curve" smooth="yes"/>
      <point x="112" y="554"/>
      <point x="182" y="623"/>
      <point x="196" y="709" type="curve"/>
      <point x="105" y="738" type="line"/>
      <point x="92" y="690"/>
      <point x="60" y="657"/>
      <point x="0" y="657" type="curve" smooth="yes"/>
      <point x="-60" y="657"/>
      <point x="-90" y="680"/>
      <point x="-111" y="739" type="curve"/>
      <point x="-205" y="709" type="line"/>
      <point x="-197" y="630"/>
      <point x="-137" y="554"/>
    </contour>
  </outline>
</glyph>
<glyph name="brevecomb_acutecomb" format="2">
  <anchor x="0" y="484" name="_top"/>
  <outline>
    <contour>
      <point x="0" y="554" type="curve" smooth="yes"/>
      <point x="112" y="554"/>
      <point x="188" y="617"/>
      <point x="198" y="714" type="curve"/>
      <point x="109" y="723" type="line"/>
      <point x="92" y="683"/>
      <point x="61" y="658"/>
      <point x="0" y="658" type="curve" smooth="yes"/>
      <point x="-61" y="658"/>
      <point x="-92" y="683"/>
      <point x="-109" y="723" type="curve"/>
      <point x="-198" y="714" type="line"/>
      <point x="-188" y="617"/>
      <point x="-112" y="554"/>
    </contour>
    <contour>
      <point x="-66" y="705" type="line"/>
      <point x="54" y="705" type="line"/>
      <point x="167" y="820" type="line"/>
      <point x="-18" y="820" type="line"/>
    </contour>
  </outline>
</glyph>
<glyph name="four.tosf" format="2">
  <advance width="600"/>
  <outline>
    <contour>
      <point x="304" y="-180" type="line"/>
      <point x="499" y="-180" type="line"/>
      <point x="499" y="0" type="line"/>
      <point x="576" y="0" type="line"/>
      <point x="576" y="152" type="line"/>
      <point x="499" y="152" type="line"/>
      <point x="499" y="494" type="line"/>
      <point x="342" y="494" type="line"/>
      <point x="29" y="128" type="line"/>
      <point x="29" y="0" type="line"/>
      <point x="304" y="0" type="line"/>
    </contour>
    <contour>
      <point x="314" y="152" type="line"/>
      <point x="208" y="152" type="line"/>
      <point x="208" y="138" type="line"/>
      <point x="342" y="295" type="line"/>
      <point x="314" y="295" type="line"/>
    </contour>
  </outline>
</glyph>
<glyph name="one.tosf" format="2">
  <advance width="600"/>
  <outline>
    <contour>
      <point x="80" y="0" type="line"/>
      <point x="588" y="0" type="line"/>
      <point x="588" y="152" type="line"/>
      <point x="441" y="152" type="line"/>
      <point x="441" y="494" type="line"/>
      <point x="289" y="494" type="line"/>
      <point x="57" y="370" type="line"/>
      <point x="126" y="236" type="line"/>
      <point x="313" y="335" type="line"/>
      <point x="233" y="335" type="line"/>
      <point x="233" y="152" type="line"/>
      <point x="80" y="152" type="line"/>
    </contour>
  </outline>
</glyph>
<glyph name="one.tosf.ss01" format="2">
  <advance width="600"/>
  <outline>
    <contour>
      <point x="258" y="0" type="line"/>
      <point x="466" y="0" type="line"/>
      <point x="466" y="494" type="line"/>
      <point x="314" y="494" type="line"/>
      <point x="58" y="352" type="line"/>
      <point x="133" y="203" type="line"/>
      <point x="346" y="321" type="line"/>
      <point x="258" y="321" type="line"/>
    </contour>
  </outline>
</glyph>
<glyph name="periodcentered.loclCAT" format="2">
  <advance width="211"/>
  <anchor x="105" y="350" name="_dot"/>
  <outline>
    <contour>
      <point x="-1" y="261" type="line"/>
      <point x="211" y="261" type="line"/>
      <point x="211" y="439" type="line"/>
      <point x="-1" y="439" type="line"/>
    </contour>
  </outline>
</glyph>
<glyph name="seven.tosf" format="2">
  <advance width="600"/>
  <outline>
    <contour>
      <point x="43" y="-180" type="line"/>
      <point x="268" y="-180" type="line"/>
      <point x="560" y="333" type="line"/>
      <point x="560" y="494" type="line"/>
      <point x="41" y="494" type="line"/>
      <point x="41" y="334" type="line"/>
      <point x="366" y="334" type="line"/>
      <point x="366" y="378" type="line"/>
    </contour>
  </outline>
</glyph>
<glyph name="zero.tosf" format="2">
  <advance width="600"/>
  <outline>
    <contour>
      <point x="300" y="-12" type="curve" smooth="yes"/>
      <point x="466" y="-12"/>
      <point x="585" y="96"/>
      <point x="585" y="247" type="curve" smooth="yes"/>
      <point x="585" y="398"/>
      <point x="466" y="506"/>
      <point x="300" y="506" type="curve" smooth="yes"/>
      <point x="134" y="506"/>
      <point x="15" y="398"/>
      <point x="15" y="247" type="curve" smooth="yes"/>
      <point x="15" y="96"/>
      <point x="134" y="-12"/>
    </contour>
    <contour>
      <point x="301" y="140" type="curve" smooth="yes"/>
      <point x="254" y="140"/>
      <point x="224" y="181"/>
      <point x="224" y="247" type="curve" smooth="yes"/>
      <point x="224" y="313"/>
      <point x="254" y="354"/>
      <point x="300" y="354" type="curve" smooth="yes"/>
      <point x="346" y="354"/>
      <point x="376" y="313"/>
      <point x="376" y="247" type="curve" smooth="yes"/>
      <point x="376" y="181"/>
      <point x="347" y="140"/>
    </contour>
  </outline>
</glyph>
